<svg width="40" height="40" viewBox="0 0 40 40" fill="none" xmlns="http://www.w3.org/2000/svg">
<circle cx="20" cy="20" r="20" fill="#53889D"/>
<path fill-rule="evenodd" clip-rule="evenodd" d="M29.4995 12.1961L30.9732 12.3682L30.3108 13.6958C29.9877 14.3432 29.6644 14.9907 29.3407 15.6381C29.3023 15.7752 29.2348 15.8954 29.1351 16.0519C29.0934 16.1173 28.951 16.3254 28.9443 16.3353C28.9067 16.3917 28.8789 16.4362 28.8589 16.4718V18.9599C28.8589 25.3266 22.6974 29.3723 16.8787 29.3723C15.688 29.3723 14.7834 29.3152 13.7476 29.0892C12.0429 28.7172 10.7743 27.9777 10.1937 26.6854L9.59606 25.3548L11.0485 25.2213C12.3625 25.1004 13.5018 24.8501 14.3767 24.5149C11.9748 24.1286 10.6288 23.0737 10.6288 21.0926V20.0509H11.6704C11.8993 20.0509 12.1057 20.0323 12.2902 19.9983C10.4875 18.9204 9.58462 17.1914 9.58462 14.7932C9.58442 14.691 9.58442 14.691 9.5838 14.5817C9.57703 13.3729 9.64196 12.727 9.97287 11.9027C10.185 11.3744 10.4915 10.8853 10.9041 10.4371L11.6901 9.58331L12.4544 10.4567C14.9729 13.335 17.4625 15.0812 20.0044 15.2924C20.0152 12.6365 22.0224 10.6266 24.692 10.6266C25.9365 10.6266 27.0654 11.099 27.9526 11.9507C28.4381 12.0505 28.9538 12.1324 29.4995 12.1961ZM27.1965 13.9187L26.8772 13.8464L26.6566 13.6044C26.1234 13.0193 25.4541 12.7099 24.692 12.7099C23.1681 12.7099 22.0876 13.7957 22.0876 15.3141C22.0876 15.5622 22.0812 15.7181 22.0503 15.9231C21.927 16.7408 21.4683 17.3974 20.5251 17.3974C17.4022 17.3974 14.5848 15.7244 11.8374 12.8669C11.6958 13.2975 11.6625 13.7401 11.6671 14.5701C11.6677 14.6811 11.6677 14.6811 11.6679 14.7932C11.6679 16.9266 12.5322 18.0935 14.5786 18.7439L15.3048 18.9747V19.7367C15.3048 20.6606 14.4294 21.5303 13.1486 21.9199C13.7358 22.3654 14.9365 22.6057 16.8791 22.6057H17.9207V23.6474C17.9207 25.1398 16.2059 26.3084 13.6154 26.9186C14.4602 27.1774 15.5851 27.289 16.8787 27.289C21.6854 27.289 26.7755 23.9467 26.7755 18.9599V16.3557C26.7755 16.0497 26.8643 15.7841 27.0116 15.5079C27.0692 15.3999 27.1327 15.297 27.211 15.1795C27.2257 15.1574 27.2804 15.0773 27.3238 15.0133L27.4064 14.8482C27.5402 14.5807 27.6739 14.3131 27.8076 14.0456C27.5998 14.0062 27.3961 13.964 27.1965 13.9187Z" fill="white"/>
</svg>
