<svg width="40" height="40" viewBox="0 0 40 40" fill="none" xmlns="http://www.w3.org/2000/svg">
<circle cx="20" cy="20" r="20" fill="#53889D"/>
<path fill-rule="evenodd" clip-rule="evenodd" d="M11 8.75H29C30.2426 8.75 31.25 9.75736 31.25 11V29C31.25 30.2426 30.2426 31.25 29 31.25H11C9.75736 31.25 8.75 30.2426 8.75 29V11C8.75 9.75736 9.75736 8.75 11 8.75ZM11 11V29H29V11H11ZM19.0247 20.0049H21.125V26.75H23.375V20.0049H25.6052V17.7549H23.375V16.625C23.375 16.0037 23.8787 15.5 24.5 15.5H25.625V13.25H24.5C22.636 13.25 21.125 14.761 21.125 16.625V17.7549H19.0247V20.0049Z" fill="white"/>
</svg>
